<svg width="414" height="491" viewBox="0 0 414 491" fill="none" xmlns="http://www.w3.org/2000/svg">
<path d="M406.493 6.67894V73.1589V418.467V483.818H327.759L316.524 473.982L314.63 472.324H312.109H101.077H98.5581L96.6641 473.982L85.4294 483.818H6.69489V418.467V73.1589V6.67894H85.4294L96.6641 16.5148L98.5581 18.1734H101.077H312.109H314.63L316.524 16.5148L327.759 6.67894H406.493ZM413.186 0H325.238L312.109 11.4945H101.077L87.9481 0H0V73.1589V418.467V490.497H87.9481L101.077 479.003H312.109L325.238 490.497H413.186V418.467V73.1589V0Z" fill="#E89005"/>
<path d="M406.475 319.4V170.606L390.375 188.938V301.07L406.475 319.4Z" fill="url(#paint0_linear_1_119)"/>
<path d="M396.811 290.933H401.205V286.54H396.811V290.933Z" fill="url(#paint1_linear_1_119)"/>
<path d="M396.811 279.999H401.205V275.606H396.811V279.999Z" fill="url(#paint2_linear_1_119)"/>
<path d="M396.811 269.066H401.205V264.673H396.811V269.066Z" fill="url(#paint3_linear_1_119)"/>
<path d="M396.811 258.132H401.205V253.741H396.811V258.132Z" fill="url(#paint4_linear_1_119)"/>
<path d="M396.811 247.2H401.205V242.808H396.811V247.2Z" fill="url(#paint5_linear_1_119)"/>
<path d="M396.811 236.267H401.205V231.875H396.811V236.267Z" fill="url(#paint6_linear_1_119)"/>
<path d="M396.811 225.333H401.205V220.941H396.811V225.333Z" fill="url(#paint7_linear_1_119)"/>
<path d="M396.811 214.4H401.205V210.008H396.811V214.4Z" fill="url(#paint8_linear_1_119)"/>
<path d="M396.811 203.467H401.205V199.076H396.811V203.467Z" fill="url(#paint9_linear_1_119)"/>
<path d="M376.002 0H37.002L76.7583 33.9652H336.246L376.002 0Z" fill="url(#paint10_linear_1_119)"/>
<path d="M3.00195 490.955H410.087L359.935 447H53.1547L3.00195 490.955Z" fill="url(#paint11_linear_1_119)"/>
<path d="M6.73242 170.606V319.4L22.8305 301.07V188.938L6.73242 170.606Z" fill="url(#paint12_linear_1_119)"/>
<path d="M16.397 199.076H12V203.469H16.397V199.076Z" fill="url(#paint13_linear_1_119)"/>
<path d="M16.397 210.008H12V214.4H16.397V210.008Z" fill="url(#paint14_linear_1_119)"/>
<path d="M16.397 220.941H12V225.333H16.397V220.941Z" fill="url(#paint15_linear_1_119)"/>
<path d="M16.397 231.875H12V236.267H16.397V231.875Z" fill="url(#paint16_linear_1_119)"/>
<path d="M16.397 242.808H12V247.2H16.397V242.808Z" fill="url(#paint17_linear_1_119)"/>
<path d="M16.397 253.741H12V258.134H16.397V253.741Z" fill="url(#paint18_linear_1_119)"/>
<path d="M16.397 264.673H12V269.066H16.397V264.673Z" fill="url(#paint19_linear_1_119)"/>
<path d="M16.397 275.606H12V279.999H16.397V275.606Z" fill="url(#paint20_linear_1_119)"/>
<path d="M16.397 286.54H12V290.933H16.397V286.54Z" fill="url(#paint21_linear_1_119)"/>
<defs>
<linearGradient id="paint0_linear_1_119" x1="398.425" y1="170.606" x2="398.425" y2="319.4" gradientUnits="userSpaceOnUse">
<stop stop-color="#E89005"/>
<stop offset="0.49" stop-color="#C10000"/>
<stop offset="1" stop-color="#E89005"/>
</linearGradient>
<linearGradient id="paint1_linear_1_119" x1="398.93" y1="312.981" x2="399.378" y2="173.497" gradientUnits="userSpaceOnUse">
<stop offset="0.00019045" stop-color="#FF88C7"/>
<stop offset="1" stop-color="#F746A3"/>
</linearGradient>
<linearGradient id="paint2_linear_1_119" x1="398.895" y1="312.981" x2="399.343" y2="173.496" gradientUnits="userSpaceOnUse">
<stop offset="0.00019045" stop-color="#FF88C7"/>
<stop offset="1" stop-color="#F746A3"/>
</linearGradient>
<linearGradient id="paint3_linear_1_119" x1="398.86" y1="312.981" x2="399.308" y2="173.497" gradientUnits="userSpaceOnUse">
<stop offset="0.00019045" stop-color="#FF88C7"/>
<stop offset="1" stop-color="#F746A3"/>
</linearGradient>
<linearGradient id="paint4_linear_1_119" x1="398.824" y1="312.981" x2="399.272" y2="173.496" gradientUnits="userSpaceOnUse">
<stop offset="0.00019045" stop-color="#FF88C7"/>
<stop offset="1" stop-color="#F746A3"/>
</linearGradient>
<linearGradient id="paint5_linear_1_119" x1="398.789" y1="312.977" x2="399.237" y2="173.5" gradientUnits="userSpaceOnUse">
<stop offset="0.00019045" stop-color="#FF88C7"/>
<stop offset="1" stop-color="#F746A3"/>
</linearGradient>
<linearGradient id="paint6_linear_1_119" x1="398.754" y1="312.977" x2="399.202" y2="173.499" gradientUnits="userSpaceOnUse">
<stop offset="0.00019045" stop-color="#FF88C7"/>
<stop offset="1" stop-color="#F746A3"/>
</linearGradient>
<linearGradient id="paint7_linear_1_119" x1="398.719" y1="312.98" x2="399.167" y2="173.496" gradientUnits="userSpaceOnUse">
<stop offset="0.00019045" stop-color="#FF88C7"/>
<stop offset="1" stop-color="#F746A3"/>
</linearGradient>
<linearGradient id="paint8_linear_1_119" x1="398.684" y1="312.98" x2="399.132" y2="173.496" gradientUnits="userSpaceOnUse">
<stop offset="0.00019045" stop-color="#FF88C7"/>
<stop offset="1" stop-color="#F746A3"/>
</linearGradient>
<linearGradient id="paint9_linear_1_119" x1="398.649" y1="312.981" x2="399.096" y2="173.496" gradientUnits="userSpaceOnUse">
<stop offset="0.00019045" stop-color="#FF88C7"/>
<stop offset="1" stop-color="#F746A3"/>
</linearGradient>
<linearGradient id="paint10_linear_1_119" x1="376.002" y1="16.9857" x2="37.002" y2="16.9857" gradientUnits="userSpaceOnUse">
<stop stop-color="#E89005"/>
<stop offset="0.49" stop-color="#C10000"/>
<stop offset="1" stop-color="#E89005"/>
</linearGradient>
<linearGradient id="paint11_linear_1_119" x1="410.087" y1="468.981" x2="3.00195" y2="468.981" gradientUnits="userSpaceOnUse">
<stop stop-color="#E89005"/>
<stop offset="0.49" stop-color="#C10000"/>
<stop offset="1" stop-color="#E89005"/>
</linearGradient>
<linearGradient id="paint12_linear_1_119" x1="14.7814" y1="170.606" x2="14.7814" y2="319.4" gradientUnits="userSpaceOnUse">
<stop stop-color="#E89005"/>
<stop offset="0.49" stop-color="#C10000"/>
<stop offset="1" stop-color="#E89005"/>
</linearGradient>
<linearGradient id="paint13_linear_1_119" x1="14.2755" y1="177.027" x2="13.8273" y2="316.511" gradientUnits="userSpaceOnUse">
<stop offset="0.00019045" stop-color="#FF88C7"/>
<stop offset="1" stop-color="#F746A3"/>
</linearGradient>
<linearGradient id="paint14_linear_1_119" x1="14.3105" y1="177.027" x2="13.8626" y2="316.511" gradientUnits="userSpaceOnUse">
<stop offset="0.00019045" stop-color="#FF88C7"/>
<stop offset="1" stop-color="#F746A3"/>
</linearGradient>
<linearGradient id="paint15_linear_1_119" x1="14.3457" y1="177.029" x2="13.8978" y2="316.506" gradientUnits="userSpaceOnUse">
<stop offset="0.00019045" stop-color="#FF88C7"/>
<stop offset="1" stop-color="#F746A3"/>
</linearGradient>
<linearGradient id="paint16_linear_1_119" x1="14.381" y1="177.029" x2="13.933" y2="316.508" gradientUnits="userSpaceOnUse">
<stop offset="0.00019045" stop-color="#FF88C7"/>
<stop offset="1" stop-color="#F746A3"/>
</linearGradient>
<linearGradient id="paint17_linear_1_119" x1="14.4162" y1="177.027" x2="13.9681" y2="316.511" gradientUnits="userSpaceOnUse">
<stop offset="0.00019045" stop-color="#FF88C7"/>
<stop offset="1" stop-color="#F746A3"/>
</linearGradient>
<linearGradient id="paint18_linear_1_119" x1="14.4513" y1="177.026" x2="14.0033" y2="316.512" gradientUnits="userSpaceOnUse">
<stop offset="0.00019045" stop-color="#FF88C7"/>
<stop offset="1" stop-color="#F746A3"/>
</linearGradient>
<linearGradient id="paint19_linear_1_119" x1="14.4865" y1="177.027" x2="14.0386" y2="316.512" gradientUnits="userSpaceOnUse">
<stop offset="0.00019045" stop-color="#FF88C7"/>
<stop offset="1" stop-color="#F746A3"/>
</linearGradient>
<linearGradient id="paint20_linear_1_119" x1="14.5218" y1="177.027" x2="14.0738" y2="316.512" gradientUnits="userSpaceOnUse">
<stop offset="0.00019045" stop-color="#FF88C7"/>
<stop offset="1" stop-color="#F746A3"/>
</linearGradient>
<linearGradient id="paint21_linear_1_119" x1="14.5568" y1="177.027" x2="14.1088" y2="316.511" gradientUnits="userSpaceOnUse">
<stop offset="0.00019045" stop-color="#FF88C7"/>
<stop offset="1" stop-color="#F746A3"/>
</linearGradient>
</defs>
</svg>
