<svg width="66" height="66" viewBox="0 0 66 66" fill="none" xmlns="http://www.w3.org/2000/svg">
<path d="M33.2291 65C50.9023 65 65.2293 50.6731 65.2293 33C65.2293 15.3269 50.9023 1 33.2291 1C15.5558 1 1.22882 15.3269 1.22882 33C1.22882 50.6731 15.5558 65 33.2291 65Z" fill="#E89005"/>
<path d="M32.9284 32.5765C32.9582 32.5765 32.9823 32.5524 32.9823 32.5226C32.9823 32.4929 32.9582 32.4688 32.9284 32.4688C32.8987 32.4688 32.8745 32.4929 32.8745 32.5226C32.8745 32.5524 32.8987 32.5765 32.9284 32.5765Z" stroke="#C10000" stroke-width="3.64867" stroke-miterlimit="10" stroke-linecap="round"/>
<path d="M29.3607 19.2319C31.7643 18.586 34.2963 18.5894 36.6983 19.2418C39.1002 19.8941 41.286 21.172 43.0327 22.9451C48.4926 28.396 48.6811 37.0616 43.4503 42.3014C41.7727 43.9564 39.6857 45.1362 37.4026 45.7199C35.1195 46.3037 32.7223 46.2706 30.4562 45.624" stroke="#C10000" stroke-width="4.0132" stroke-miterlimit="10" stroke-linecap="round"/>
<path d="M38.8563 35.9583C37.1007 39.2404 32.8217 40.3719 29.3015 38.4861C25.7814 36.6003 24.3625 32.4112 26.1047 29.1335C27.8468 25.8558 32.1392 24.7154 35.6594 26.6012C36.4369 27.0175 37.1382 27.5626 37.7338 28.2131" stroke="#C10000" stroke-width="2.55506" stroke-miterlimit="10" stroke-linecap="round"/>
<path d="M53.9841 44.5538C47.3838 55.5901 32.9664 59.1058 21.7773 52.4157C10.5882 45.7256 6.86603 31.3533 13.4663 20.3169C20.0666 9.28058 34.484 5.76494 45.6731 12.4595C48.1509 13.9357 50.3401 15.8496 52.1342 18.1079" stroke="#C10000" stroke-width="6.01815" stroke-miterlimit="10" stroke-linecap="round"/>
<path d="M33.2291 65C50.9023 65 65.2293 50.6731 65.2293 33C65.2293 15.3269 50.9023 1 33.2291 1C15.5558 1 1.22882 15.3269 1.22882 33C1.22882 50.6731 15.5558 65 33.2291 65Z" stroke="url(#paint0_linear_27_762)" stroke-width="0.546803" stroke-miterlimit="10"/>
<defs>
<linearGradient id="paint0_linear_27_762" x1="33.2291" y1="1" x2="33.2291" y2="65" gradientUnits="userSpaceOnUse">
<stop stop-color="#E89005"/>
<stop offset="0.49" stop-color="#C10000"/>
<stop offset="1" stop-color="#E89005"/>
</linearGradient>
</defs>
</svg>
